<svg xmlns="http://www.w3.org/2000/svg" width="51.798" height="45" viewBox="0 0 51.798 45">
  <path id="fast-delivery_1_" data-name="fast-delivery(1)" d="M46,35.414h-.28l-3.065-7.149a4.245,4.245,0,0,0,1.647.357.849.849,0,0,0,.849-.849V20.981a.849.849,0,0,0-.849-.849,4.245,4.245,0,0,0-4,2.887,3.133,3.133,0,0,0-2.14-1.282,4.245,4.245,0,0,0-1.613.1h-.739c-1.435,0-2.072-.849-3.074-2.233l-.5-.7a2.929,2.929,0,0,0,1.443-.467,3.074,3.074,0,0,0,1.231-2.012,2.386,2.386,0,0,0,1.121-1.477,1.52,1.52,0,0,0-.467-1.333,4.05,4.05,0,0,1-.552-1.953.849.849,0,0,0,.8-.866,6.793,6.793,0,1,0-11.632,4.772,6.912,6.912,0,0,0,.594.526c-3.277.8-5,3.872-5.884,6.538a2.7,2.7,0,0,0-1.919-.8H7.954a2.7,2.7,0,0,0-2.275,1.24.85.85,0,1,0,1.426.925,1,1,0,0,1,.849-.458H9.49v2.547a.849.849,0,0,0,.849.849h4.245a.849.849,0,0,0,.849-.849V23.528H16.97a1.01,1.01,0,0,1,1.01,1.01v6.478a1.01,1.01,0,0,1-1.01,1H7.954a.993.993,0,0,1-1.01-.849h1.7a.849.849,0,1,0,0-1.7h-1.7v-1.7h.849a.849.849,0,1,0,0-1.7H3.547a.849.849,0,0,0,0,1.7h1.7v1.7h-3.4a.849.849,0,1,0,0,1.7h3.4a2.7,2.7,0,0,0,2.691,2.547h4.245a5.663,5.663,0,0,0-.993,1.308,15.563,15.563,0,0,0-1.7,7.183.849.849,0,0,0,.849.849h2.607a6.792,6.792,0,0,0,13.466,0H39.266A6.792,6.792,0,1,0,46,35.414ZM13.736,25.226H11.188v-1.7h2.547Zm29.716-3.252V26.78a2.547,2.547,0,0,1,0-4.806Zm-5.536,1.435a1.63,1.63,0,0,1,1.358,1.3l.221.518a7.726,7.726,0,0,1-3.829.849,2.241,2.241,0,0,1,1.257-2.547,2.479,2.479,0,0,1,.993-.11ZM33.73,15.122a.849.849,0,0,0-.467.764,1.537,1.537,0,0,1-.535,1.121c-.484.323-1.384.246-2.547-.212a.849.849,0,0,0-.187,0l-.127-.11V13.433a1.791,1.791,0,0,1,1.791-1.791h1.6a5.68,5.68,0,0,0,.993,3.074,2.241,2.241,0,0,1-.526.416Zm-9.806-4.407A5.188,5.188,0,0,1,28.942,5.7h.076a5.094,5.094,0,0,1,5.026,4.245H31.659a3.5,3.5,0,0,0-3.49,3.49v2.386a5.094,5.094,0,0,1-4.245-5.094Zm2.547,6.869c2.776,0,3.8,1.452,4.873,2.98a6.174,6.174,0,0,0,3.226,2.776,4.245,4.245,0,0,0-.62,2.6,7.726,7.726,0,0,1-5.052-3.7.849.849,0,1,0-1.452.849,10.333,10.333,0,0,0,1.053,1.46l-.076.051A7.4,7.4,0,0,0,26.8,27.773H19.679v-.849C19.738,26.406,20.706,17.584,26.471,17.584ZM19.679,31.008V29.471H27.32c.17,0,4.245.051,4.245,4.245v4.245h-3.4v-1.7a4.092,4.092,0,0,0-4.245-4.245h-4.44a2.683,2.683,0,0,0,.2-1.01Zm0,16.293a5.094,5.094,0,0,1-5.018-4.245H16.4a3.4,3.4,0,0,0,6.555,0H24.7A5.094,5.094,0,0,1,19.679,47.3Zm-1.46-4.245h2.921a1.7,1.7,0,0,1-2.921,0Zm-7.03-1.7a13.661,13.661,0,0,1,1.545-5.6,3.889,3.889,0,0,1,3.49-2.046h7.7a2.42,2.42,0,0,1,2.547,2.547V38.81a4.245,4.245,0,0,0,.849,2.547Zm19.528,0a2.547,2.547,0,0,1-2.394-1.7h4.092a1.6,1.6,0,0,1,1.7,1.639,6.792,6.792,0,0,1-.849.059Zm5.442-.993a2.19,2.19,0,0,1-.416.365,3.175,3.175,0,0,0-2.479-2.649V33.716A5.57,5.57,0,0,0,28.526,27.9a5.739,5.739,0,0,1,1.1-2.08.8.8,0,0,0,.059-.093,9.28,9.28,0,0,0,4.585,1.987L36.66,38.123A3.023,3.023,0,0,1,36.159,40.364Zm2.2-2.59-2.335-10a9.136,9.136,0,0,0,4.143-.951l4.007,9.339-3.7,5.2H37.509a4.755,4.755,0,0,0,.849-3.583ZM46,41.358h-1.46a1.7,1.7,0,1,1,0,1.7H46a.849.849,0,0,0,0-1.7Zm-3.447,0,.3-.416a3.4,3.4,0,0,0-.127.416ZM46,47.3a5.094,5.094,0,0,1-5.018-4.245h1.741a3.4,3.4,0,1,0,1.036-3.4l1.808-2.547H46A5.094,5.094,0,0,1,46,47.3Z" transform="translate(-1 -3.999)" fill="#fff"/>
</svg>
